<?xml version="1.0" encoding="UTF-8"?>
<svg width="14px" height="15px" viewBox="0 0 14 15" version="1.1" xmlns="http://www.w3.org/2000/svg" xmlns:xlink="http://www.w3.org/1999/xlink">
    <!-- Generator: sketchtool 52.6 (67491) - http://www.bohemiancoding.com/sketch -->
    <title>C6CBFBDD-A03B-4620-B4C2-1C27BEFD223E</title>
    <desc>Created with sketchtool.</desc>
    <g id="Page-1" stroke="none" stroke-width="1" fill="none" fill-rule="evenodd">
        <g id="Tasks" transform="translate(-384.000000, -174.000000)" fill="#6C63FF">
            <g id="Group-2" transform="translate(384.000000, 174.000000)">
                <path d="M1.51222218,13.0601579 L1.51222218,1.63251974 L9.0733331,1.63251974 L9.0733331,3.55271368e-15 L1.51222218,3.55271368e-15 C0.680499983,3.55271368e-15 -1.77635684e-15,0.734633884 -1.77635684e-15,1.63251974 L-1.77635684e-15,13.0601579 C-1.77635684e-15,13.9580438 0.680499983,14.6926777 1.51222218,14.6926777 L12.0977775,14.6926777 C12.9294997,14.6926777 13.6099997,13.9580438 13.6099997,13.0601579 L13.6099997,6.53007897 L12.0977775,6.53007897 L12.0977775,13.0601579 L1.51222218,13.0601579 Z" id="Shape"></path>
                <polygon id="Path" points="4.33045444 10.0177348 6.23652318 10.0177348 11.7540906 4.04743378 9.84802186 2.00354696 4.33045444 7.97384795"></polygon>
            </g>
        </g>
    </g>
</svg>