<?xml version="1.0" encoding="UTF-8"?>
<svg width="13px" height="11px" viewBox="0 0 13 11" version="1.1" xmlns="http://www.w3.org/2000/svg" xmlns:xlink="http://www.w3.org/1999/xlink">
    <!-- Generator: sketchtool 52.6 (67491) - http://www.bohemiancoding.com/sketch -->
    <title>A4925B0F-51AF-44FA-A9DB-D782EB903676</title>
    <desc>Created with sketchtool.</desc>
    <g id="Page-1" stroke="none" stroke-width="1" fill="none" fill-rule="evenodd">
        <g id="Tasks" transform="translate(-175.000000, -242.000000)" fill="#B8C3D4">
            <path d="M186.5,242.5 L176.5,242.5 C175.8125,242.5 175.25625,243.0625 175.25625,243.75 L175.25,251.25 C175.25,251.9375 175.8125,252.5 176.5,252.5 L186.5,252.5 C187.1875,252.5 187.75,251.9375 187.75,251.25 L187.75,243.75 C187.75,243.0625 187.1875,242.5 186.5,242.5 L186.5,242.5 Z M186.5,251.25 L176.5,251.25 L176.5,245 L181.5,248.125 L186.5,245 L186.5,251.25 L186.5,251.25 Z M181.5,246.875 L176.5,243.75 L186.5,243.75 L181.5,246.875 L181.5,246.875 Z" id="Shape"></path>
        </g>
    </g>
</svg>